<?xml version="1.0" encoding="UTF-8"?><svg xmlns="http://www.w3.org/2000/svg" viewBox="0 0 88.64 77.28"><defs><style>.d{fill:#0072bd;}.e{fill:#fff;}.f{fill:#edb120;}.g{fill:#7e2f8e;}.h{fill:#d95319;}.i{fill:#77ac30;}.j{stroke:#262626;stroke-width:1.28px;}.j,.k{fill:none;stroke-miterlimit:10;}.k{stroke:#000;stroke-width:2.56px;}.l{font-family:ArialMT, Arial;font-size:8px;isolation:isolate;}</style></defs><g id="a"/><g id="b"><g id="c"><g><path class="e" d="M66.64,.64H.64V76.64H66.64"/><g transform="translate(432.1055,50)"><text class="l" transform="translate(45.74 12.64)"><tspan x="0" y="0">Large Loss</tspan></text></g><path class="d" d="M42.76,14.89V4.39H4.62V14.89H42.76Z"/><path class="k" d="M4.62,14.89V4.39H42.76V14.89H4.62Z"/><g transform="translate(432.1055,64.5)"><text class="l" transform="translate(45.74 27.14)"><tspan x="0" y="0">Small Loss</tspan></text></g><path class="h" d="M42.76,29.39v-10.5H4.62v10.5H42.76Z"/><path class="f" d="M42.76,43.89v-10.5H4.62v10.5H42.76Z"/><path class="k" d="M4.62,43.89v-10.5H42.76v10.5H4.62Z"/><g transform="translate(432.1055,93.5)"><text class="l" transform="translate(45.74 56.14)"><tspan x="0" y="0">Small Gain</tspan></text></g><path class="g" d="M42.76,58.39v-10.5H4.62v10.5H42.76Z"/><path class="k" d="M4.62,58.39v-10.5H42.76v10.5H4.62Z"/><g transform="translate(432.1055,108)"><text class="l" transform="translate(45.74 70.64)"><tspan x="0" y="0">Large Gain</tspan></text></g><path class="i" d="M42.76,72.89v-10.5H4.62v10.5H42.76Z"/><g><path class="k" d="M4.62,72.89v-10.5H42.76v10.5H4.62Z"/><path class="j" d="M.64,76.64V.64H88V76.64H.64Z"/></g><text class="l" transform="translate(46.58 41.89)"><tspan x="0" y="0">Neutral</tspan></text></g><path class="k" d="M4.62,29.39v-10.5H42.76v10.5H4.62Z"/></g></g></svg>