<?xml version="1.0" encoding="utf-8" standalone="no"?>
<!DOCTYPE svg PUBLIC "-//W3C//DTD SVG 1.1//EN"
  "http://www.w3.org/Graphics/SVG/1.1/DTD/svg11.dtd">
<!-- Created with matplotlib (https://matplotlib.org/) -->
<svg height="360pt" version="1.1" viewBox="0 0 360 360" width="360pt" xmlns="http://www.w3.org/2000/svg" xmlns:xlink="http://www.w3.org/1999/xlink">
 <metadata>
  <rdf:RDF xmlns:cc="http://creativecommons.org/ns#" xmlns:dc="http://purl.org/dc/elements/1.1/" xmlns:rdf="http://www.w3.org/1999/02/22-rdf-syntax-ns#">
   <cc:Work>
    <dc:type rdf:resource="http://purl.org/dc/dcmitype/StillImage"/>
    <dc:date>2022-06-23T13:34:48.151540</dc:date>
    <dc:format>image/svg+xml</dc:format>
    <dc:creator>
     <cc:Agent>
      <dc:title>Matplotlib v3.3.2, https://matplotlib.org/</dc:title>
     </cc:Agent>
    </dc:creator>
   </cc:Work>
  </rdf:RDF>
 </metadata>
 <defs>
  <style type="text/css">*{stroke-linecap:butt;stroke-linejoin:round;}</style>
 </defs>
 <g id="figure_1">
  <g id="patch_1">
   <path d="M 0 360 
L 360 360 
L 360 0 
L 0 0 
z
" style="fill:none;"/>
  </g>
  <g id="axes_1">
   <g id="patch_2">
    <path d="M 42.175 332.2 
L 349.2 332.2 
L 349.2 10.8 
L 42.175 10.8 
z
" style="fill:#ffffff;"/>
   </g>
   <g id="PathCollection_1">
    <defs>
     <path d="M 0 3 
C 0.795609 3 1.55874 2.683901 2.12132 2.12132 
C 2.683901 1.55874 3 0.795609 3 0 
C 3 -0.795609 2.683901 -1.55874 2.12132 -2.12132 
C 1.55874 -2.683901 0.795609 -3 0 -3 
C -0.795609 -3 -1.55874 -2.683901 -2.12132 -2.12132 
C -2.683901 -1.55874 -3 -0.795609 -3 0 
C -3 0.795609 -2.683901 1.55874 -2.12132 2.12132 
C -1.55874 2.683901 -0.795609 3 0 3 
z
" id="m8afb8b7d67" style="stroke:#1f77b4;stroke-opacity:0.8;"/>
    </defs>
    <g clip-path="url(#pdabc7edffc)">
     <use style="fill:#1f77b4;fill-opacity:0.8;stroke:#1f77b4;stroke-opacity:0.8;" x="212.744444" xlink:href="#m8afb8b7d67" y="246.978005"/>
     <use style="fill:#1f77b4;fill-opacity:0.8;stroke:#1f77b4;stroke-opacity:0.8;" x="212.744444" xlink:href="#m8afb8b7d67" y="242.163857"/>
     <use style="fill:#1f77b4;fill-opacity:0.8;stroke:#1f77b4;stroke-opacity:0.8;" x="280.972222" xlink:href="#m8afb8b7d67" y="219.534412"/>
     <use style="fill:#1f77b4;fill-opacity:0.8;stroke:#1f77b4;stroke-opacity:0.8;" x="178.630556" xlink:href="#m8afb8b7d67" y="219.958904"/>
     <use style="fill:#1f77b4;fill-opacity:0.8;stroke:#1f77b4;stroke-opacity:0.8;" x="246.858333" xlink:href="#m8afb8b7d67" y="174.749891"/>
     <use style="fill:#1f77b4;fill-opacity:0.8;stroke:#1f77b4;stroke-opacity:0.8;" x="144.516667" xlink:href="#m8afb8b7d67" y="178.356972"/>
     <use style="fill:#1f77b4;fill-opacity:0.8;stroke:#1f77b4;stroke-opacity:0.8;" x="280.972222" xlink:href="#m8afb8b7d67" y="192.25245"/>
     <use style="fill:#1f77b4;fill-opacity:0.8;stroke:#1f77b4;stroke-opacity:0.8;" x="42.175" xlink:href="#m8afb8b7d67" y="153.621716"/>
     <use style="fill:#1f77b4;fill-opacity:0.8;stroke:#1f77b4;stroke-opacity:0.8;" x="349.2" xlink:href="#m8afb8b7d67" y="147.843906"/>
     <use style="fill:#1f77b4;fill-opacity:0.8;stroke:#1f77b4;stroke-opacity:0.8;" x="76.288889" xlink:href="#m8afb8b7d67" y="120.594787"/>
     <use style="fill:#1f77b4;fill-opacity:0.8;stroke:#1f77b4;stroke-opacity:0.8;" x="315.086111" xlink:href="#m8afb8b7d67" y="170.806625"/>
     <use style="fill:#1f77b4;fill-opacity:0.8;stroke:#1f77b4;stroke-opacity:0.8;" x="280.972222" xlink:href="#m8afb8b7d67" y="185.621091"/>
     <use style="fill:#1f77b4;fill-opacity:0.8;stroke:#1f77b4;stroke-opacity:0.8;" x="144.516667" xlink:href="#m8afb8b7d67" y="238.842508"/>
     <use style="fill:#1f77b4;fill-opacity:0.8;stroke:#1f77b4;stroke-opacity:0.8;" x="280.972222" xlink:href="#m8afb8b7d67" y="188.287024"/>
     <use style="fill:#1f77b4;fill-opacity:0.8;stroke:#1f77b4;stroke-opacity:0.8;" x="110.402778" xlink:href="#m8afb8b7d67" y="117.89614"/>
     <use style="fill:#1f77b4;fill-opacity:0.8;stroke:#1f77b4;stroke-opacity:0.8;" x="349.2" xlink:href="#m8afb8b7d67" y="25.409091"/>
     <use style="fill:#1f77b4;fill-opacity:0.8;stroke:#1f77b4;stroke-opacity:0.8;" x="76.288889" xlink:href="#m8afb8b7d67" y="217.836132"/>
     <use style="fill:#1f77b4;fill-opacity:0.8;stroke:#1f77b4;stroke-opacity:0.8;" x="315.086111" xlink:href="#m8afb8b7d67" y="163.997104"/>
     <use style="fill:#1f77b4;fill-opacity:0.8;stroke:#1f77b4;stroke-opacity:0.8;" x="280.972222" xlink:href="#m8afb8b7d67" y="77.332872"/>
     <use style="fill:#1f77b4;fill-opacity:0.8;stroke:#1f77b4;stroke-opacity:0.8;" x="246.858333" xlink:href="#m8afb8b7d67" y="187.106223"/>
     <use style="fill:#1f77b4;fill-opacity:0.8;stroke:#1f77b4;stroke-opacity:0.8;" x="144.516667" xlink:href="#m8afb8b7d67" y="184.855711"/>
     <use style="fill:#1f77b4;fill-opacity:0.8;stroke:#1f77b4;stroke-opacity:0.8;" x="110.402778" xlink:href="#m8afb8b7d67" y="147.991727"/>
     <use style="fill:#1f77b4;fill-opacity:0.8;stroke:#1f77b4;stroke-opacity:0.8;" x="349.2" xlink:href="#m8afb8b7d67" y="196.286651"/>
     <use style="fill:#1f77b4;fill-opacity:0.8;stroke:#1f77b4;stroke-opacity:0.8;" x="178.630556" xlink:href="#m8afb8b7d67" y="173.723013"/>
     <use style="fill:#1f77b4;fill-opacity:0.8;stroke:#1f77b4;stroke-opacity:0.8;" x="110.402778" xlink:href="#m8afb8b7d67" y="215.990341"/>
     <use style="fill:#1f77b4;fill-opacity:0.8;stroke:#1f77b4;stroke-opacity:0.8;" x="42.175" xlink:href="#m8afb8b7d67" y="317.590909"/>
     <use style="fill:#1f77b4;fill-opacity:0.8;stroke:#1f77b4;stroke-opacity:0.8;" x="110.402778" xlink:href="#m8afb8b7d67" y="265.871962"/>
     <use style="fill:#1f77b4;fill-opacity:0.8;stroke:#1f77b4;stroke-opacity:0.8;" x="349.2" xlink:href="#m8afb8b7d67" y="260.765116"/>
     <use style="fill:#1f77b4;fill-opacity:0.8;stroke:#1f77b4;stroke-opacity:0.8;" x="212.744444" xlink:href="#m8afb8b7d67" y="212.159359"/>
     <use style="fill:#1f77b4;fill-opacity:0.8;stroke:#1f77b4;stroke-opacity:0.8;" x="246.858333" xlink:href="#m8afb8b7d67" y="214.331309"/>
     <use style="fill:#1f77b4;fill-opacity:0.8;stroke:#1f77b4;stroke-opacity:0.8;" x="349.2" xlink:href="#m8afb8b7d67" y="171.479128"/>
     <use style="fill:#1f77b4;fill-opacity:0.8;stroke:#1f77b4;stroke-opacity:0.8;" x="144.516667" xlink:href="#m8afb8b7d67" y="225.52757"/>
     <use style="fill:#1f77b4;fill-opacity:0.8;stroke:#1f77b4;stroke-opacity:0.8;" x="212.744444" xlink:href="#m8afb8b7d67" y="241.875153"/>
     <use style="fill:#1f77b4;fill-opacity:0.8;stroke:#1f77b4;stroke-opacity:0.8;" x="76.288889" xlink:href="#m8afb8b7d67" y="169.093483"/>
     <use style="fill:#1f77b4;fill-opacity:0.8;stroke:#1f77b4;stroke-opacity:0.8;" x="110.402778" xlink:href="#m8afb8b7d67" y="178.374358"/>
     <use style="fill:#1f77b4;fill-opacity:0.8;stroke:#1f77b4;stroke-opacity:0.8;" x="42.175" xlink:href="#m8afb8b7d67" y="260.961147"/>
     <use style="fill:#1f77b4;fill-opacity:0.8;stroke:#1f77b4;stroke-opacity:0.8;" x="315.086111" xlink:href="#m8afb8b7d67" y="179.390418"/>
     <use style="fill:#1f77b4;fill-opacity:0.8;stroke:#1f77b4;stroke-opacity:0.8;" x="42.175" xlink:href="#m8afb8b7d67" y="264.602928"/>
     <use style="fill:#1f77b4;fill-opacity:0.8;stroke:#1f77b4;stroke-opacity:0.8;" x="76.288889" xlink:href="#m8afb8b7d67" y="212.022536"/>
     <use style="fill:#1f77b4;fill-opacity:0.8;stroke:#1f77b4;stroke-opacity:0.8;" x="178.630556" xlink:href="#m8afb8b7d67" y="257.749586"/>
     <use style="fill:#1f77b4;fill-opacity:0.8;stroke:#1f77b4;stroke-opacity:0.8;" x="315.086111" xlink:href="#m8afb8b7d67" y="121.709578"/>
     <use style="fill:#1f77b4;fill-opacity:0.8;stroke:#1f77b4;stroke-opacity:0.8;" x="246.858333" xlink:href="#m8afb8b7d67" y="102.635234"/>
     <use style="fill:#1f77b4;fill-opacity:0.8;stroke:#1f77b4;stroke-opacity:0.8;" x="76.288889" xlink:href="#m8afb8b7d67" y="101.66518"/>
     <use style="fill:#1f77b4;fill-opacity:0.8;stroke:#1f77b4;stroke-opacity:0.8;" x="144.516667" xlink:href="#m8afb8b7d67" y="232.107437"/>
     <use style="fill:#1f77b4;fill-opacity:0.8;stroke:#1f77b4;stroke-opacity:0.8;" x="76.288889" xlink:href="#m8afb8b7d67" y="170.86139"/>
     <use style="fill:#1f77b4;fill-opacity:0.8;stroke:#1f77b4;stroke-opacity:0.8;" x="212.744444" xlink:href="#m8afb8b7d67" y="188.157126"/>
     <use style="fill:#1f77b4;fill-opacity:0.8;stroke:#1f77b4;stroke-opacity:0.8;" x="246.858333" xlink:href="#m8afb8b7d67" y="270.934875"/>
    </g>
   </g>
   <g id="PolyCollection_1">
    <path clip-path="url(#pdabc7edffc)" d="M 42.175 180.016451 
L 42.175 245.961175 
L 45.276263 245.251159 
L 48.377525 244.242105 
L 51.478788 243.228607 
L 54.580051 242.212377 
L 57.681313 241.196148 
L 60.782576 240.218777 
L 63.883838 239.391267 
L 66.985101 238.674167 
L 70.086364 237.972555 
L 73.187626 237.270944 
L 76.288889 236.569332 
L 79.390152 235.753639 
L 82.491414 234.721627 
L 85.592677 233.68959 
L 88.693939 232.796174 
L 91.795202 231.938187 
L 94.896465 231.243214 
L 97.997727 230.485252 
L 101.09899 229.58821 
L 104.200253 228.691592 
L 107.301515 227.807278 
L 110.402778 226.929254 
L 113.50404 226.155269 
L 116.605303 225.330836 
L 119.706566 224.50444 
L 122.807828 223.680584 
L 125.909091 222.580694 
L 129.010354 221.517104 
L 132.111616 220.677832 
L 135.212879 219.721072 
L 138.314141 218.90467 
L 141.415404 217.931122 
L 144.516667 217.040673 
L 147.617929 216.204877 
L 150.719192 215.545502 
L 153.820455 214.882643 
L 156.921717 214.132526 
L 160.02298 213.38394 
L 163.124242 212.636156 
L 166.225505 212.235679 
L 169.326768 211.613619 
L 172.42803 210.961681 
L 175.529293 210.538069 
L 178.630556 209.887084 
L 181.731818 209.29492 
L 184.833081 208.694045 
L 187.934343 208.045963 
L 191.035606 207.435426 
L 194.136869 206.793294 
L 197.238131 205.972391 
L 200.339394 205.453946 
L 203.440657 205.14726 
L 206.541919 204.627739 
L 209.643182 204.319345 
L 212.744444 204.015629 
L 215.845707 203.707205 
L 218.94697 203.403157 
L 222.048232 203.100021 
L 225.149495 202.775201 
L 228.250758 202.317896 
L 231.35202 202.106169 
L 234.453283 201.932639 
L 237.554545 201.759008 
L 240.655808 201.741371 
L 243.757071 201.684251 
L 246.858333 201.680939 
L 249.959596 201.617495 
L 253.060859 201.149952 
L 256.162121 201.156339 
L 259.263384 201.19341 
L 262.364646 201.23048 
L 265.465909 201.267551 
L 268.567172 201.295588 
L 271.668434 201.203842 
L 274.769697 201.368861 
L 277.87096 201.411088 
L 280.972222 201.446312 
L 284.073485 201.481535 
L 287.174747 201.51971 
L 290.27601 201.560152 
L 293.377273 201.596593 
L 296.478535 201.586714 
L 299.579798 201.622783 
L 302.681061 201.709118 
L 305.782323 201.745454 
L 308.883586 201.675541 
L 311.984848 201.823611 
L 315.086111 201.83023 
L 318.187374 201.568623 
L 321.288636 201.724063 
L 324.389899 201.88764 
L 327.491162 202.005302 
L 330.592424 202.018625 
L 333.693687 202.088915 
L 336.794949 202.12842 
L 339.896212 202.160691 
L 342.997475 202.192857 
L 346.098737 202.25066 
L 349.2 202.325116 
L 349.2 134.849092 
L 349.2 134.849092 
L 346.098737 135.932225 
L 342.997475 137.129526 
L 339.896212 138.12746 
L 336.794949 139.166913 
L 333.693687 140.238583 
L 330.592424 141.310253 
L 327.491162 142.145081 
L 324.389899 142.977271 
L 321.288636 143.80946 
L 318.187374 145.022431 
L 315.086111 146.262404 
L 311.984848 147.502377 
L 308.883586 148.555452 
L 305.782323 149.452666 
L 302.681061 149.95741 
L 299.579798 150.46372 
L 296.478535 150.974678 
L 293.377273 151.755893 
L 290.27601 152.707502 
L 287.174747 153.496012 
L 284.073485 154.564983 
L 280.972222 155.633955 
L 277.87096 156.625864 
L 274.769697 157.705134 
L 271.668434 158.842401 
L 268.567172 159.912097 
L 265.465909 160.945889 
L 262.364646 162.051489 
L 259.263384 163.101483 
L 256.162121 163.978496 
L 253.060859 165.019855 
L 249.959596 165.793867 
L 246.858333 166.44336 
L 243.757071 167.100468 
L 240.655808 167.91966 
L 237.554545 168.467115 
L 234.453283 169.454918 
L 231.35202 170.204741 
L 228.250758 171.125271 
L 225.149495 171.806975 
L 222.048232 172.44165 
L 218.94697 172.792788 
L 215.845707 173.282243 
L 212.744444 174.085948 
L 209.643182 174.438109 
L 206.541919 174.811526 
L 203.440657 175.175513 
L 200.339394 175.846195 
L 197.238131 176.374567 
L 194.136869 176.859673 
L 191.035606 177.238122 
L 187.934343 177.42168 
L 184.833081 177.70586 
L 181.731818 177.794872 
L 178.630556 178.195356 
L 175.529293 178.321014 
L 172.42803 178.89714 
L 169.326768 179.170326 
L 166.225505 179.732939 
L 163.124242 180.099789 
L 160.02298 180.412892 
L 156.921717 180.472692 
L 153.820455 180.419037 
L 150.719192 180.753469 
L 147.617929 180.931599 
L 144.516667 180.87962 
L 141.415404 181.171541 
L 138.314141 181.269562 
L 135.212879 181.436197 
L 132.111616 181.508357 
L 129.010354 181.5299 
L 125.909091 181.546706 
L 122.807828 181.70889 
L 119.706566 181.669565 
L 116.605303 181.555498 
L 113.50404 181.758896 
L 110.402778 181.967449 
L 107.301515 182.153316 
L 104.200253 181.976096 
L 101.09899 182.269053 
L 97.997727 182.5472 
L 94.896465 182.332363 
L 91.795202 182.127181 
L 88.693939 181.986885 
L 85.592677 181.837129 
L 82.491414 181.649252 
L 79.390152 181.589951 
L 76.288889 181.463381 
L 73.187626 181.328404 
L 70.086364 181.193427 
L 66.985101 180.987821 
L 63.883838 180.821939 
L 60.782576 180.788587 
L 57.681313 180.653519 
L 54.580051 180.518541 
L 51.478788 180.383564 
L 48.377525 180.251742 
L 45.276263 180.122809 
L 42.175 180.016451 
z
" style="fill:#1f77b4;fill-opacity:0.15;"/>
   </g>
   <g id="matplotlib.axis_1">
    <g id="xtick_1">
     <g id="line2d_1">
      <defs>
       <path d="M 0 0 
L 0 3.5 
" id="mfcd8504c61" style="stroke:#000000;stroke-width:0.8;"/>
      </defs>
      <g>
       <use style="stroke:#000000;stroke-width:0.8;" x="60.276247" xlink:href="#mfcd8504c61" y="332.2"/>
      </g>
     </g>
     <g id="text_1">
      <text style="font-family:DejaVu Sans;font-size:10px;font-stretch:normal;font-style:normal;font-weight:normal;text-anchor:middle;" transform="rotate(-0, 60.276247, 346.798438)" x="60.276247" y="346.798438">−4</text>
     </g>
    </g>
    <g id="xtick_2">
     <g id="line2d_2">
      <g>
       <use style="stroke:#000000;stroke-width:0.8;" x="94.390136" xlink:href="#mfcd8504c61" y="332.2"/>
      </g>
     </g>
     <g id="text_2">
      <text style="font-family:DejaVu Sans;font-size:10px;font-stretch:normal;font-style:normal;font-weight:normal;text-anchor:middle;" transform="rotate(-0, 94.390136, 346.798438)" x="94.390136" y="346.798438">−3</text>
     </g>
    </g>
    <g id="xtick_3">
     <g id="line2d_3">
      <g>
       <use style="stroke:#000000;stroke-width:0.8;" x="128.504025" xlink:href="#mfcd8504c61" y="332.2"/>
      </g>
     </g>
     <g id="text_3">
      <text style="font-family:DejaVu Sans;font-size:10px;font-stretch:normal;font-style:normal;font-weight:normal;text-anchor:middle;" transform="rotate(-0, 128.504025, 346.798438)" x="128.504025" y="346.798438">−2</text>
     </g>
    </g>
    <g id="xtick_4">
     <g id="line2d_4">
      <g>
       <use style="stroke:#000000;stroke-width:0.8;" x="162.617914" xlink:href="#mfcd8504c61" y="332.2"/>
      </g>
     </g>
     <g id="text_4">
      <text style="font-family:DejaVu Sans;font-size:10px;font-stretch:normal;font-style:normal;font-weight:normal;text-anchor:middle;" transform="rotate(-0, 162.617914, 346.798438)" x="162.617914" y="346.798438">−1</text>
     </g>
    </g>
    <g id="xtick_5">
     <g id="line2d_5">
      <g>
       <use style="stroke:#000000;stroke-width:0.8;" x="196.731803" xlink:href="#mfcd8504c61" y="332.2"/>
      </g>
     </g>
     <g id="text_5">
      <text style="font-family:DejaVu Sans;font-size:10px;font-stretch:normal;font-style:normal;font-weight:normal;text-anchor:middle;" transform="rotate(-0, 196.731803, 346.798438)" x="196.731803" y="346.798438">0</text>
     </g>
    </g>
    <g id="xtick_6">
     <g id="line2d_6">
      <g>
       <use style="stroke:#000000;stroke-width:0.8;" x="230.845692" xlink:href="#mfcd8504c61" y="332.2"/>
      </g>
     </g>
     <g id="text_6">
      <text style="font-family:DejaVu Sans;font-size:10px;font-stretch:normal;font-style:normal;font-weight:normal;text-anchor:middle;" transform="rotate(-0, 230.845692, 346.798438)" x="230.845692" y="346.798438">1</text>
     </g>
    </g>
    <g id="xtick_7">
     <g id="line2d_7">
      <g>
       <use style="stroke:#000000;stroke-width:0.8;" x="264.95958" xlink:href="#mfcd8504c61" y="332.2"/>
      </g>
     </g>
     <g id="text_7">
      <text style="font-family:DejaVu Sans;font-size:10px;font-stretch:normal;font-style:normal;font-weight:normal;text-anchor:middle;" transform="rotate(-0, 264.95958, 346.798438)" x="264.95958" y="346.798438">2</text>
     </g>
    </g>
    <g id="xtick_8">
     <g id="line2d_8">
      <g>
       <use style="stroke:#000000;stroke-width:0.8;" x="299.073469" xlink:href="#mfcd8504c61" y="332.2"/>
      </g>
     </g>
     <g id="text_8">
      <text style="font-family:DejaVu Sans;font-size:10px;font-stretch:normal;font-style:normal;font-weight:normal;text-anchor:middle;" transform="rotate(-0, 299.073469, 346.798438)" x="299.073469" y="346.798438">3</text>
     </g>
    </g>
    <g id="xtick_9">
     <g id="line2d_9">
      <g>
       <use style="stroke:#000000;stroke-width:0.8;" x="333.187358" xlink:href="#mfcd8504c61" y="332.2"/>
      </g>
     </g>
     <g id="text_9">
      <text style="font-family:DejaVu Sans;font-size:10px;font-stretch:normal;font-style:normal;font-weight:normal;text-anchor:middle;" transform="rotate(-0, 333.187358, 346.798438)" x="333.187358" y="346.798438">4</text>
     </g>
    </g>
    <g id="text_10">
     <text style="font-family:DejaVu Sans;font-size:10px;font-stretch:normal;font-style:normal;font-weight:normal;text-anchor:middle;" transform="rotate(-0, 195.6875, 360.476562)" x="195.6875" y="360.476562">Composite_Reward</text>
    </g>
   </g>
   <g id="matplotlib.axis_2">
    <g id="ytick_1">
     <g id="line2d_10">
      <defs>
       <path d="M 0 0 
L -3.5 0 
" id="m0f2d44327d" style="stroke:#000000;stroke-width:0.8;"/>
      </defs>
      <g>
       <use style="stroke:#000000;stroke-width:0.8;" x="42.175" xlink:href="#m0f2d44327d" y="327.645938"/>
      </g>
     </g>
     <g id="text_11">
      <text style="font-family:DejaVu Sans;font-size:10px;font-stretch:normal;font-style:normal;font-weight:normal;text-anchor:end;" transform="rotate(-0, 35.175, 331.445157)" x="35.175" y="331.445157">−1.0</text>
     </g>
    </g>
    <g id="ytick_2">
     <g id="line2d_11">
      <g>
       <use style="stroke:#000000;stroke-width:0.8;" x="42.175" xlink:href="#m0f2d44327d" y="261.56339"/>
      </g>
     </g>
     <g id="text_12">
      <text style="font-family:DejaVu Sans;font-size:10px;font-stretch:normal;font-style:normal;font-weight:normal;text-anchor:end;" transform="rotate(-0, 35.175, 265.362609)" x="35.175" y="265.362609">−0.5</text>
     </g>
    </g>
    <g id="ytick_3">
     <g id="line2d_12">
      <g>
       <use style="stroke:#000000;stroke-width:0.8;" x="42.175" xlink:href="#m0f2d44327d" y="195.480842"/>
      </g>
     </g>
     <g id="text_13">
      <text style="font-family:DejaVu Sans;font-size:10px;font-stretch:normal;font-style:normal;font-weight:normal;text-anchor:end;" transform="rotate(-0, 35.175, 199.280061)" x="35.175" y="199.280061">0.0</text>
     </g>
    </g>
    <g id="ytick_4">
     <g id="line2d_13">
      <g>
       <use style="stroke:#000000;stroke-width:0.8;" x="42.175" xlink:href="#m0f2d44327d" y="129.398294"/>
      </g>
     </g>
     <g id="text_14">
      <text style="font-family:DejaVu Sans;font-size:10px;font-stretch:normal;font-style:normal;font-weight:normal;text-anchor:end;" transform="rotate(-0, 35.175, 133.197513)" x="35.175" y="133.197513">0.5</text>
     </g>
    </g>
    <g id="ytick_5">
     <g id="line2d_14">
      <g>
       <use style="stroke:#000000;stroke-width:0.8;" x="42.175" xlink:href="#m0f2d44327d" y="63.315746"/>
      </g>
     </g>
     <g id="text_15">
      <text style="font-family:DejaVu Sans;font-size:10px;font-stretch:normal;font-style:normal;font-weight:normal;text-anchor:end;" transform="rotate(-0, 35.175, 67.114964)" x="35.175" y="67.114964">1.0</text>
     </g>
    </g>
    <g id="text_16">
     <text style="font-family:DejaVu Sans;font-size:10px;font-stretch:normal;font-style:normal;font-weight:normal;text-anchor:middle;" transform="rotate(-90, 4.8125, 171.5)" x="4.8125" y="171.5">Conn Gain&gt;Loss</text>
    </g>
   </g>
   <g id="line2d_15">
    <path clip-path="url(#pdabc7edffc)" d="M 42.175 213.550269 
L 45.276263 213.104832 
L 48.377525 212.659395 
L 51.478788 212.213958 
L 54.580051 211.768521 
L 57.681313 211.323084 
L 60.782576 210.877647 
L 63.883838 210.43221 
L 66.985101 209.986772 
L 70.086364 209.541335 
L 73.187626 209.095898 
L 76.288889 208.650461 
L 79.390152 208.205024 
L 82.491414 207.759587 
L 85.592677 207.31415 
L 88.693939 206.868713 
L 91.795202 206.423276 
L 94.896465 205.977838 
L 97.997727 205.532401 
L 101.09899 205.086964 
L 104.200253 204.641527 
L 107.301515 204.19609 
L 110.402778 203.750653 
L 113.50404 203.305216 
L 116.605303 202.859779 
L 119.706566 202.414342 
L 122.807828 201.968904 
L 125.909091 201.523467 
L 129.010354 201.07803 
L 132.111616 200.632593 
L 135.212879 200.187156 
L 138.314141 199.741719 
L 141.415404 199.296282 
L 144.516667 198.850845 
L 147.617929 198.405408 
L 150.719192 197.95997 
L 153.820455 197.514533 
L 156.921717 197.069096 
L 160.02298 196.623659 
L 163.124242 196.178222 
L 166.225505 195.732785 
L 169.326768 195.287348 
L 172.42803 194.841911 
L 175.529293 194.396474 
L 178.630556 193.951036 
L 181.731818 193.505599 
L 184.833081 193.060162 
L 187.934343 192.614725 
L 191.035606 192.169288 
L 194.136869 191.723851 
L 197.238131 191.278414 
L 200.339394 190.832977 
L 203.440657 190.38754 
L 206.541919 189.942102 
L 209.643182 189.496665 
L 212.744444 189.051228 
L 215.845707 188.605791 
L 218.94697 188.160354 
L 222.048232 187.714917 
L 225.149495 187.26948 
L 228.250758 186.824043 
L 231.35202 186.378606 
L 234.453283 185.933168 
L 237.554545 185.487731 
L 240.655808 185.042294 
L 243.757071 184.596857 
L 246.858333 184.15142 
L 249.959596 183.705983 
L 253.060859 183.260546 
L 256.162121 182.815109 
L 259.263384 182.369672 
L 262.364646 181.924234 
L 265.465909 181.478797 
L 268.567172 181.03336 
L 271.668434 180.587923 
L 274.769697 180.142486 
L 277.87096 179.697049 
L 280.972222 179.251612 
L 284.073485 178.806175 
L 287.174747 178.360738 
L 290.27601 177.9153 
L 293.377273 177.469863 
L 296.478535 177.024426 
L 299.579798 176.578989 
L 302.681061 176.133552 
L 305.782323 175.688115 
L 308.883586 175.242678 
L 311.984848 174.797241 
L 315.086111 174.351804 
L 318.187374 173.906366 
L 321.288636 173.460929 
L 324.389899 173.015492 
L 327.491162 172.570055 
L 330.592424 172.124618 
L 333.693687 171.679181 
L 336.794949 171.233744 
L 339.896212 170.788307 
L 342.997475 170.34287 
L 346.098737 169.897432 
L 349.2 169.451995 
" style="fill:none;stroke:#1f77b4;stroke-linecap:square;stroke-width:2.25;"/>
   </g>
   <g id="patch_3">
    <path d="M 42.175 332.2 
L 42.175 10.8 
" style="fill:none;stroke:#000000;stroke-linecap:square;stroke-linejoin:miter;stroke-width:0.8;"/>
   </g>
   <g id="patch_4">
    <path d="M 42.175 332.2 
L 349.2 332.2 
" style="fill:none;stroke:#000000;stroke-linecap:square;stroke-linejoin:miter;stroke-width:0.8;"/>
   </g>
  </g>
 </g>
 <defs>
  <clipPath id="pdabc7edffc">
   <rect height="321.4" width="307.025" x="42.175" y="10.8"/>
  </clipPath>
 </defs>
</svg>
