<?xml version="1.0" encoding="utf-8" standalone="no"?>
<!DOCTYPE svg PUBLIC "-//W3C//DTD SVG 1.1//EN"
  "http://www.w3.org/Graphics/SVG/1.1/DTD/svg11.dtd">
<!-- Created with matplotlib (https://matplotlib.org/) -->
<svg height="360pt" version="1.1" viewBox="0 0 360 360" width="360pt" xmlns="http://www.w3.org/2000/svg" xmlns:xlink="http://www.w3.org/1999/xlink">
 <metadata>
  <rdf:RDF xmlns:cc="http://creativecommons.org/ns#" xmlns:dc="http://purl.org/dc/elements/1.1/" xmlns:rdf="http://www.w3.org/1999/02/22-rdf-syntax-ns#">
   <cc:Work>
    <dc:type rdf:resource="http://purl.org/dc/dcmitype/StillImage"/>
    <dc:date>2022-06-23T13:34:51.837451</dc:date>
    <dc:format>image/svg+xml</dc:format>
    <dc:creator>
     <cc:Agent>
      <dc:title>Matplotlib v3.3.2, https://matplotlib.org/</dc:title>
     </cc:Agent>
    </dc:creator>
   </cc:Work>
  </rdf:RDF>
 </metadata>
 <defs>
  <style type="text/css">*{stroke-linecap:butt;stroke-linejoin:round;}</style>
 </defs>
 <g id="figure_1">
  <g id="patch_1">
   <path d="M 0 360 
L 360 360 
L 360 0 
L 0 0 
z
" style="fill:none;"/>
  </g>
  <g id="axes_1">
   <g id="patch_2">
    <path d="M 48.55 332.2 
L 349.2 332.2 
L 349.2 10.8 
L 48.55 10.8 
z
" style="fill:#ffffff;"/>
   </g>
   <g id="PathCollection_1">
    <defs>
     <path d="M 0 3 
C 0.795609 3 1.55874 2.683901 2.12132 2.12132 
C 2.683901 1.55874 3 0.795609 3 0 
C 3 -0.795609 2.683901 -1.55874 2.12132 -2.12132 
C 1.55874 -2.683901 0.795609 -3 0 -3 
C -0.795609 -3 -1.55874 -2.683901 -2.12132 -2.12132 
C -2.683901 -1.55874 -3 -0.795609 -3 0 
C -3 0.795609 -2.683901 1.55874 -2.12132 2.12132 
C -1.55874 2.683901 -0.795609 3 0 3 
z
" id="mca34b3614d" style="stroke:#1f77b4;stroke-opacity:0.8;"/>
    </defs>
    <g clip-path="url(#pde2bfaba7c)">
     <use style="fill:#1f77b4;fill-opacity:0.8;stroke:#1f77b4;stroke-opacity:0.8;" x="215.577778" xlink:href="#mca34b3614d" y="213.150203"/>
     <use style="fill:#1f77b4;fill-opacity:0.8;stroke:#1f77b4;stroke-opacity:0.8;" x="215.577778" xlink:href="#mca34b3614d" y="271.20417"/>
     <use style="fill:#1f77b4;fill-opacity:0.8;stroke:#1f77b4;stroke-opacity:0.8;" x="282.388889" xlink:href="#mca34b3614d" y="232.929133"/>
     <use style="fill:#1f77b4;fill-opacity:0.8;stroke:#1f77b4;stroke-opacity:0.8;" x="182.172222" xlink:href="#mca34b3614d" y="205.651891"/>
     <use style="fill:#1f77b4;fill-opacity:0.8;stroke:#1f77b4;stroke-opacity:0.8;" x="248.983333" xlink:href="#mca34b3614d" y="121.72658"/>
     <use style="fill:#1f77b4;fill-opacity:0.8;stroke:#1f77b4;stroke-opacity:0.8;" x="148.766667" xlink:href="#mca34b3614d" y="154.222272"/>
     <use style="fill:#1f77b4;fill-opacity:0.8;stroke:#1f77b4;stroke-opacity:0.8;" x="282.388889" xlink:href="#mca34b3614d" y="213.46551"/>
     <use style="fill:#1f77b4;fill-opacity:0.8;stroke:#1f77b4;stroke-opacity:0.8;" x="48.55" xlink:href="#mca34b3614d" y="172.291004"/>
     <use style="fill:#1f77b4;fill-opacity:0.8;stroke:#1f77b4;stroke-opacity:0.8;" x="349.2" xlink:href="#mca34b3614d" y="183.922819"/>
     <use style="fill:#1f77b4;fill-opacity:0.8;stroke:#1f77b4;stroke-opacity:0.8;" x="81.955556" xlink:href="#mca34b3614d" y="286.458771"/>
     <use style="fill:#1f77b4;fill-opacity:0.8;stroke:#1f77b4;stroke-opacity:0.8;" x="315.794444" xlink:href="#mca34b3614d" y="195.346682"/>
     <use style="fill:#1f77b4;fill-opacity:0.8;stroke:#1f77b4;stroke-opacity:0.8;" x="282.388889" xlink:href="#mca34b3614d" y="168.092053"/>
     <use style="fill:#1f77b4;fill-opacity:0.8;stroke:#1f77b4;stroke-opacity:0.8;" x="148.766667" xlink:href="#mca34b3614d" y="145.562727"/>
     <use style="fill:#1f77b4;fill-opacity:0.8;stroke:#1f77b4;stroke-opacity:0.8;" x="282.388889" xlink:href="#mca34b3614d" y="142.931664"/>
     <use style="fill:#1f77b4;fill-opacity:0.8;stroke:#1f77b4;stroke-opacity:0.8;" x="115.361111" xlink:href="#mca34b3614d" y="192.592673"/>
     <use style="fill:#1f77b4;fill-opacity:0.8;stroke:#1f77b4;stroke-opacity:0.8;" x="349.2" xlink:href="#mca34b3614d" y="286.888055"/>
     <use style="fill:#1f77b4;fill-opacity:0.8;stroke:#1f77b4;stroke-opacity:0.8;" x="81.955556" xlink:href="#mca34b3614d" y="180.941101"/>
     <use style="fill:#1f77b4;fill-opacity:0.8;stroke:#1f77b4;stroke-opacity:0.8;" x="315.794444" xlink:href="#mca34b3614d" y="180.525674"/>
     <use style="fill:#1f77b4;fill-opacity:0.8;stroke:#1f77b4;stroke-opacity:0.8;" x="282.388889" xlink:href="#mca34b3614d" y="202.552441"/>
     <use style="fill:#1f77b4;fill-opacity:0.8;stroke:#1f77b4;stroke-opacity:0.8;" x="248.983333" xlink:href="#mca34b3614d" y="43.878268"/>
     <use style="fill:#1f77b4;fill-opacity:0.8;stroke:#1f77b4;stroke-opacity:0.8;" x="148.766667" xlink:href="#mca34b3614d" y="178.733645"/>
     <use style="fill:#1f77b4;fill-opacity:0.8;stroke:#1f77b4;stroke-opacity:0.8;" x="115.361111" xlink:href="#mca34b3614d" y="228.769982"/>
     <use style="fill:#1f77b4;fill-opacity:0.8;stroke:#1f77b4;stroke-opacity:0.8;" x="349.2" xlink:href="#mca34b3614d" y="200.232956"/>
     <use style="fill:#1f77b4;fill-opacity:0.8;stroke:#1f77b4;stroke-opacity:0.8;" x="182.172222" xlink:href="#mca34b3614d" y="155.250947"/>
     <use style="fill:#1f77b4;fill-opacity:0.8;stroke:#1f77b4;stroke-opacity:0.8;" x="115.361111" xlink:href="#mca34b3614d" y="104.508987"/>
     <use style="fill:#1f77b4;fill-opacity:0.8;stroke:#1f77b4;stroke-opacity:0.8;" x="48.55" xlink:href="#mca34b3614d" y="55.278813"/>
     <use style="fill:#1f77b4;fill-opacity:0.8;stroke:#1f77b4;stroke-opacity:0.8;" x="115.361111" xlink:href="#mca34b3614d" y="179.622461"/>
     <use style="fill:#1f77b4;fill-opacity:0.8;stroke:#1f77b4;stroke-opacity:0.8;" x="349.2" xlink:href="#mca34b3614d" y="177.430971"/>
     <use style="fill:#1f77b4;fill-opacity:0.8;stroke:#1f77b4;stroke-opacity:0.8;" x="215.577778" xlink:href="#mca34b3614d" y="317.590909"/>
     <use style="fill:#1f77b4;fill-opacity:0.8;stroke:#1f77b4;stroke-opacity:0.8;" x="248.983333" xlink:href="#mca34b3614d" y="217.916799"/>
     <use style="fill:#1f77b4;fill-opacity:0.8;stroke:#1f77b4;stroke-opacity:0.8;" x="349.2" xlink:href="#mca34b3614d" y="159.651538"/>
     <use style="fill:#1f77b4;fill-opacity:0.8;stroke:#1f77b4;stroke-opacity:0.8;" x="148.766667" xlink:href="#mca34b3614d" y="243.305352"/>
     <use style="fill:#1f77b4;fill-opacity:0.8;stroke:#1f77b4;stroke-opacity:0.8;" x="215.577778" xlink:href="#mca34b3614d" y="175.503415"/>
     <use style="fill:#1f77b4;fill-opacity:0.8;stroke:#1f77b4;stroke-opacity:0.8;" x="81.955556" xlink:href="#mca34b3614d" y="163.099226"/>
     <use style="fill:#1f77b4;fill-opacity:0.8;stroke:#1f77b4;stroke-opacity:0.8;" x="115.361111" xlink:href="#mca34b3614d" y="181.331304"/>
     <use style="fill:#1f77b4;fill-opacity:0.8;stroke:#1f77b4;stroke-opacity:0.8;" x="48.55" xlink:href="#mca34b3614d" y="193.677883"/>
     <use style="fill:#1f77b4;fill-opacity:0.8;stroke:#1f77b4;stroke-opacity:0.8;" x="315.794444" xlink:href="#mca34b3614d" y="193.339247"/>
     <use style="fill:#1f77b4;fill-opacity:0.8;stroke:#1f77b4;stroke-opacity:0.8;" x="48.55" xlink:href="#mca34b3614d" y="190.254941"/>
     <use style="fill:#1f77b4;fill-opacity:0.8;stroke:#1f77b4;stroke-opacity:0.8;" x="81.955556" xlink:href="#mca34b3614d" y="209.80842"/>
     <use style="fill:#1f77b4;fill-opacity:0.8;stroke:#1f77b4;stroke-opacity:0.8;" x="182.172222" xlink:href="#mca34b3614d" y="25.409091"/>
     <use style="fill:#1f77b4;fill-opacity:0.8;stroke:#1f77b4;stroke-opacity:0.8;" x="315.794444" xlink:href="#mca34b3614d" y="152.149582"/>
     <use style="fill:#1f77b4;fill-opacity:0.8;stroke:#1f77b4;stroke-opacity:0.8;" x="248.983333" xlink:href="#mca34b3614d" y="197.590326"/>
     <use style="fill:#1f77b4;fill-opacity:0.8;stroke:#1f77b4;stroke-opacity:0.8;" x="81.955556" xlink:href="#mca34b3614d" y="34.760509"/>
     <use style="fill:#1f77b4;fill-opacity:0.8;stroke:#1f77b4;stroke-opacity:0.8;" x="148.766667" xlink:href="#mca34b3614d" y="162.05863"/>
     <use style="fill:#1f77b4;fill-opacity:0.8;stroke:#1f77b4;stroke-opacity:0.8;" x="81.955556" xlink:href="#mca34b3614d" y="121.82469"/>
     <use style="fill:#1f77b4;fill-opacity:0.8;stroke:#1f77b4;stroke-opacity:0.8;" x="215.577778" xlink:href="#mca34b3614d" y="171.986328"/>
     <use style="fill:#1f77b4;fill-opacity:0.8;stroke:#1f77b4;stroke-opacity:0.8;" x="248.983333" xlink:href="#mca34b3614d" y="193.017512"/>
    </g>
   </g>
   <g id="PolyCollection_1">
    <path clip-path="url(#pde2bfaba7c)" d="M 48.55 128.699236 
L 48.55 190.418508 
L 51.586869 190.300456 
L 54.623737 190.275852 
L 57.660606 190.469636 
L 60.697475 190.66342 
L 63.734343 190.857205 
L 66.771212 190.780248 
L 69.808081 190.662462 
L 72.844949 190.544182 
L 75.881818 190.425903 
L 78.918687 190.307623 
L 81.955556 190.298615 
L 84.992424 190.45509 
L 88.029293 190.371913 
L 91.066162 190.159645 
L 94.10303 189.955831 
L 97.139899 190.246385 
L 100.176768 190.408965 
L 103.213636 190.357472 
L 106.250505 190.394449 
L 109.287374 190.501222 
L 112.324242 190.604266 
L 115.361111 190.70731 
L 118.39798 190.810354 
L 121.434848 190.917525 
L 124.471717 191.03218 
L 127.508586 191.146835 
L 130.545455 191.256224 
L 133.582323 191.355991 
L 136.619192 191.453931 
L 139.656061 191.421875 
L 142.692929 191.625403 
L 145.729798 191.780332 
L 148.766667 191.974882 
L 151.803535 192.159285 
L 154.840404 192.163186 
L 157.877273 192.215813 
L 160.914141 192.414844 
L 163.95101 192.716491 
L 166.987879 192.989109 
L 170.024747 193.028517 
L 173.061616 193.075216 
L 176.098485 193.047812 
L 179.135354 193.256192 
L 182.172222 193.46833 
L 185.209091 193.682213 
L 188.24596 193.723411 
L 191.282828 193.723562 
L 194.319697 193.796569 
L 197.356566 193.95834 
L 200.393434 194.14746 
L 203.430303 194.519096 
L 206.467172 194.876184 
L 209.50404 195.223113 
L 212.540909 195.280937 
L 215.577778 195.570993 
L 218.614646 196.030369 
L 221.651515 196.317421 
L 224.688384 196.826916 
L 227.725253 197.165704 
L 230.762121 197.685739 
L 233.79899 198.038347 
L 236.835859 198.388329 
L 239.872727 198.739889 
L 242.909596 199.09219 
L 245.946465 199.655893 
L 248.983333 200.146498 
L 252.020202 200.50751 
L 255.057071 201.042969 
L 258.093939 201.396218 
L 261.130808 201.804982 
L 264.167677 201.997829 
L 267.204545 202.65287 
L 270.241414 203.106841 
L 273.278283 203.727199 
L 276.315152 204.559835 
L 279.35202 205.212602 
L 282.388889 205.675607 
L 285.425758 206.149464 
L 288.462626 206.73105 
L 291.499495 207.229622 
L 294.536364 207.721737 
L 297.573232 208.309026 
L 300.610101 209.040304 
L 303.64697 209.767646 
L 306.683838 210.486583 
L 309.720707 211.059309 
L 312.757576 211.938125 
L 315.794444 212.607166 
L 318.831313 213.245539 
L 321.868182 213.91557 
L 324.905051 214.707085 
L 327.941919 215.412842 
L 330.978788 216.293968 
L 334.015657 217.021745 
L 337.052525 217.8309 
L 340.089394 218.658974 
L 343.126263 219.473798 
L 346.163131 220.28674 
L 349.2 221.099681 
L 349.2 169.3312 
L 349.2 169.3312 
L 346.163131 169.393356 
L 343.126263 169.455512 
L 340.089394 169.519267 
L 337.052525 169.417749 
L 334.015657 169.473066 
L 330.978788 169.65736 
L 327.941919 169.76629 
L 324.905051 169.817992 
L 321.868182 169.73265 
L 318.831313 169.37208 
L 315.794444 169.187452 
L 312.757576 169.130834 
L 309.720707 169.166081 
L 306.683838 169.206396 
L 303.64697 169.249376 
L 300.610101 168.943721 
L 297.573232 168.610457 
L 294.536364 168.658812 
L 291.499495 168.82536 
L 288.462626 168.400894 
L 285.425758 168.013172 
L 282.388889 168.236489 
L 279.35202 168.370847 
L 276.315152 168.053805 
L 273.278283 167.989273 
L 270.241414 167.698893 
L 267.204545 167.61399 
L 264.167677 167.444802 
L 261.130808 167.02863 
L 258.093939 166.605723 
L 255.057071 166.334005 
L 252.020202 166.047792 
L 248.983333 165.92716 
L 245.946465 165.808752 
L 242.909596 165.592049 
L 239.872727 165.310001 
L 236.835859 165.04078 
L 233.79899 164.990443 
L 230.762121 164.936822 
L 227.725253 164.368967 
L 224.688384 163.939882 
L 221.651515 163.722775 
L 218.614646 163.3863 
L 215.577778 162.934012 
L 212.540909 162.274932 
L 209.50404 161.732411 
L 206.467172 161.426417 
L 203.430303 160.687563 
L 200.393434 160.135448 
L 197.356566 159.687045 
L 194.319697 159.08863 
L 191.282828 158.545173 
L 188.24596 157.982888 
L 185.209091 156.912957 
L 182.172222 156.195902 
L 179.135354 155.802521 
L 176.098485 155.479726 
L 173.061616 154.910776 
L 170.024747 154.250835 
L 166.987879 153.822523 
L 163.95101 153.398414 
L 160.914141 153.016368 
L 157.877273 152.499231 
L 154.840404 151.871784 
L 151.803535 151.244473 
L 148.766667 150.622583 
L 145.729798 149.785281 
L 142.692929 148.943175 
L 139.656061 148.187005 
L 136.619192 147.944149 
L 133.582323 147.513134 
L 130.545455 146.891244 
L 127.508586 146.269354 
L 124.471717 145.647465 
L 121.434848 145.02599 
L 118.39798 144.281157 
L 115.361111 143.356771 
L 112.324242 142.87958 
L 109.287374 142.014723 
L 106.250505 141.384195 
L 103.213636 140.846256 
L 100.176768 140.206246 
L 97.139899 139.626912 
L 94.10303 139.047578 
L 91.066162 138.474962 
L 88.029293 137.805617 
L 84.992424 137.111792 
L 81.955556 136.205481 
L 78.918687 135.599226 
L 75.881818 134.825987 
L 72.844949 134.19139 
L 69.808081 133.472681 
L 66.771212 132.418186 
L 63.734343 131.78976 
L 60.697475 131.16868 
L 57.660606 130.548541 
L 54.623737 129.929288 
L 51.586869 129.314262 
L 48.55 128.699236 
z
" style="fill:#1f77b4;fill-opacity:0.15;"/>
   </g>
   <g id="matplotlib.axis_1">
    <g id="xtick_1">
     <g id="line2d_1">
      <defs>
       <path d="M 0 0 
L 0 3.5 
" id="ma51aff561f" style="stroke:#000000;stroke-width:0.8;"/>
      </defs>
      <g>
       <use style="stroke:#000000;stroke-width:0.8;" x="66.275397" xlink:href="#ma51aff561f" y="332.2"/>
      </g>
     </g>
     <g id="text_1">
      <text style="font-family:DejaVu Sans;font-size:10px;font-stretch:normal;font-style:normal;font-weight:normal;text-anchor:middle;" transform="rotate(-0, 66.275397, 346.798438)" x="66.275397" y="346.798438">−4</text>
     </g>
    </g>
    <g id="xtick_2">
     <g id="line2d_2">
      <g>
       <use style="stroke:#000000;stroke-width:0.8;" x="99.680952" xlink:href="#ma51aff561f" y="332.2"/>
      </g>
     </g>
     <g id="text_2">
      <text style="font-family:DejaVu Sans;font-size:10px;font-stretch:normal;font-style:normal;font-weight:normal;text-anchor:middle;" transform="rotate(-0, 99.680952, 346.798438)" x="99.680952" y="346.798438">−3</text>
     </g>
    </g>
    <g id="xtick_3">
     <g id="line2d_3">
      <g>
       <use style="stroke:#000000;stroke-width:0.8;" x="133.086508" xlink:href="#ma51aff561f" y="332.2"/>
      </g>
     </g>
     <g id="text_3">
      <text style="font-family:DejaVu Sans;font-size:10px;font-stretch:normal;font-style:normal;font-weight:normal;text-anchor:middle;" transform="rotate(-0, 133.086508, 346.798438)" x="133.086508" y="346.798438">−2</text>
     </g>
    </g>
    <g id="xtick_4">
     <g id="line2d_4">
      <g>
       <use style="stroke:#000000;stroke-width:0.8;" x="166.492063" xlink:href="#ma51aff561f" y="332.2"/>
      </g>
     </g>
     <g id="text_4">
      <text style="font-family:DejaVu Sans;font-size:10px;font-stretch:normal;font-style:normal;font-weight:normal;text-anchor:middle;" transform="rotate(-0, 166.492063, 346.798438)" x="166.492063" y="346.798438">−1</text>
     </g>
    </g>
    <g id="xtick_5">
     <g id="line2d_5">
      <g>
       <use style="stroke:#000000;stroke-width:0.8;" x="199.897619" xlink:href="#ma51aff561f" y="332.2"/>
      </g>
     </g>
     <g id="text_5">
      <text style="font-family:DejaVu Sans;font-size:10px;font-stretch:normal;font-style:normal;font-weight:normal;text-anchor:middle;" transform="rotate(-0, 199.897619, 346.798438)" x="199.897619" y="346.798438">0</text>
     </g>
    </g>
    <g id="xtick_6">
     <g id="line2d_6">
      <g>
       <use style="stroke:#000000;stroke-width:0.8;" x="233.303175" xlink:href="#ma51aff561f" y="332.2"/>
      </g>
     </g>
     <g id="text_6">
      <text style="font-family:DejaVu Sans;font-size:10px;font-stretch:normal;font-style:normal;font-weight:normal;text-anchor:middle;" transform="rotate(-0, 233.303175, 346.798438)" x="233.303175" y="346.798438">1</text>
     </g>
    </g>
    <g id="xtick_7">
     <g id="line2d_7">
      <g>
       <use style="stroke:#000000;stroke-width:0.8;" x="266.70873" xlink:href="#ma51aff561f" y="332.2"/>
      </g>
     </g>
     <g id="text_7">
      <text style="font-family:DejaVu Sans;font-size:10px;font-stretch:normal;font-style:normal;font-weight:normal;text-anchor:middle;" transform="rotate(-0, 266.70873, 346.798438)" x="266.70873" y="346.798438">2</text>
     </g>
    </g>
    <g id="xtick_8">
     <g id="line2d_8">
      <g>
       <use style="stroke:#000000;stroke-width:0.8;" x="300.114286" xlink:href="#ma51aff561f" y="332.2"/>
      </g>
     </g>
     <g id="text_8">
      <text style="font-family:DejaVu Sans;font-size:10px;font-stretch:normal;font-style:normal;font-weight:normal;text-anchor:middle;" transform="rotate(-0, 300.114286, 346.798438)" x="300.114286" y="346.798438">3</text>
     </g>
    </g>
    <g id="xtick_9">
     <g id="line2d_9">
      <g>
       <use style="stroke:#000000;stroke-width:0.8;" x="333.519841" xlink:href="#ma51aff561f" y="332.2"/>
      </g>
     </g>
     <g id="text_9">
      <text style="font-family:DejaVu Sans;font-size:10px;font-stretch:normal;font-style:normal;font-weight:normal;text-anchor:middle;" transform="rotate(-0, 333.519841, 346.798438)" x="333.519841" y="346.798438">4</text>
     </g>
    </g>
    <g id="text_10">
     <text style="font-family:DejaVu Sans;font-size:10px;font-stretch:normal;font-style:normal;font-weight:normal;text-anchor:middle;" transform="rotate(-0, 198.875, 360.476562)" x="198.875" y="360.476562">Composite_Reward</text>
    </g>
   </g>
   <g id="matplotlib.axis_2">
    <g id="ytick_1">
     <g id="line2d_10">
      <defs>
       <path d="M 0 0 
L -3.5 0 
" id="md93c55cbd5" style="stroke:#000000;stroke-width:0.8;"/>
      </defs>
      <g>
       <use style="stroke:#000000;stroke-width:0.8;" x="48.55" xlink:href="#md93c55cbd5" y="314.365695"/>
      </g>
     </g>
     <g id="text_11">
      <text style="font-family:DejaVu Sans;font-size:10px;font-stretch:normal;font-style:normal;font-weight:normal;text-anchor:end;" transform="rotate(-0, 41.55, 318.164914)" x="41.55" y="318.164914">−0.75</text>
     </g>
    </g>
    <g id="ytick_2">
     <g id="line2d_11">
      <g>
       <use style="stroke:#000000;stroke-width:0.8;" x="48.55" xlink:href="#md93c55cbd5" y="273.598881"/>
      </g>
     </g>
     <g id="text_12">
      <text style="font-family:DejaVu Sans;font-size:10px;font-stretch:normal;font-style:normal;font-weight:normal;text-anchor:end;" transform="rotate(-0, 41.55, 277.3981)" x="41.55" y="277.3981">−0.50</text>
     </g>
    </g>
    <g id="ytick_3">
     <g id="line2d_12">
      <g>
       <use style="stroke:#000000;stroke-width:0.8;" x="48.55" xlink:href="#md93c55cbd5" y="232.832068"/>
      </g>
     </g>
     <g id="text_13">
      <text style="font-family:DejaVu Sans;font-size:10px;font-stretch:normal;font-style:normal;font-weight:normal;text-anchor:end;" transform="rotate(-0, 41.55, 236.631287)" x="41.55" y="236.631287">−0.25</text>
     </g>
    </g>
    <g id="ytick_4">
     <g id="line2d_13">
      <g>
       <use style="stroke:#000000;stroke-width:0.8;" x="48.55" xlink:href="#md93c55cbd5" y="192.065255"/>
      </g>
     </g>
     <g id="text_14">
      <text style="font-family:DejaVu Sans;font-size:10px;font-stretch:normal;font-style:normal;font-weight:normal;text-anchor:end;" transform="rotate(-0, 41.55, 195.864474)" x="41.55" y="195.864474">0.00</text>
     </g>
    </g>
    <g id="ytick_5">
     <g id="line2d_14">
      <g>
       <use style="stroke:#000000;stroke-width:0.8;" x="48.55" xlink:href="#md93c55cbd5" y="151.298442"/>
      </g>
     </g>
     <g id="text_15">
      <text style="font-family:DejaVu Sans;font-size:10px;font-stretch:normal;font-style:normal;font-weight:normal;text-anchor:end;" transform="rotate(-0, 41.55, 155.09766)" x="41.55" y="155.09766">0.25</text>
     </g>
    </g>
    <g id="ytick_6">
     <g id="line2d_15">
      <g>
       <use style="stroke:#000000;stroke-width:0.8;" x="48.55" xlink:href="#md93c55cbd5" y="110.531628"/>
      </g>
     </g>
     <g id="text_16">
      <text style="font-family:DejaVu Sans;font-size:10px;font-stretch:normal;font-style:normal;font-weight:normal;text-anchor:end;" transform="rotate(-0, 41.55, 114.330847)" x="41.55" y="114.330847">0.50</text>
     </g>
    </g>
    <g id="ytick_7">
     <g id="line2d_16">
      <g>
       <use style="stroke:#000000;stroke-width:0.8;" x="48.55" xlink:href="#md93c55cbd5" y="69.764815"/>
      </g>
     </g>
     <g id="text_17">
      <text style="font-family:DejaVu Sans;font-size:10px;font-stretch:normal;font-style:normal;font-weight:normal;text-anchor:end;" transform="rotate(-0, 41.55, 73.564034)" x="41.55" y="73.564034">0.75</text>
     </g>
    </g>
    <g id="ytick_8">
     <g id="line2d_17">
      <g>
       <use style="stroke:#000000;stroke-width:0.8;" x="48.55" xlink:href="#md93c55cbd5" y="28.998002"/>
      </g>
     </g>
     <g id="text_18">
      <text style="font-family:DejaVu Sans;font-size:10px;font-stretch:normal;font-style:normal;font-weight:normal;text-anchor:end;" transform="rotate(-0, 41.55, 32.79722)" x="41.55" y="32.79722">1.00</text>
     </g>
    </g>
    <g id="text_19">
     <text style="font-family:DejaVu Sans;font-size:10px;font-stretch:normal;font-style:normal;font-weight:normal;text-anchor:middle;" transform="rotate(-90, 4.825, 171.5)" x="4.825" y="171.5">Conn LG-SG</text>
    </g>
   </g>
   <g id="line2d_18">
    <path clip-path="url(#pde2bfaba7c)" d="M 48.55 161.29538 
L 51.586869 161.640642 
L 54.623737 161.985904 
L 57.660606 162.331166 
L 60.697475 162.676428 
L 63.734343 163.02169 
L 66.771212 163.366953 
L 69.808081 163.712215 
L 72.844949 164.057477 
L 75.881818 164.402739 
L 78.918687 164.748001 
L 81.955556 165.093263 
L 84.992424 165.438525 
L 88.029293 165.783787 
L 91.066162 166.129049 
L 94.10303 166.474311 
L 97.139899 166.819573 
L 100.176768 167.164835 
L 103.213636 167.510097 
L 106.250505 167.855359 
L 109.287374 168.200621 
L 112.324242 168.545883 
L 115.361111 168.891145 
L 118.39798 169.236407 
L 121.434848 169.581669 
L 124.471717 169.926931 
L 127.508586 170.272193 
L 130.545455 170.617455 
L 133.582323 170.962717 
L 136.619192 171.307979 
L 139.656061 171.653241 
L 142.692929 171.998503 
L 145.729798 172.343765 
L 148.766667 172.689027 
L 151.803535 173.034289 
L 154.840404 173.379551 
L 157.877273 173.724813 
L 160.914141 174.070075 
L 163.95101 174.415337 
L 166.987879 174.760599 
L 170.024747 175.105861 
L 173.061616 175.451123 
L 176.098485 175.796385 
L 179.135354 176.141647 
L 182.172222 176.486909 
L 185.209091 176.832171 
L 188.24596 177.177434 
L 191.282828 177.522696 
L 194.319697 177.867958 
L 197.356566 178.21322 
L 200.393434 178.558482 
L 203.430303 178.903744 
L 206.467172 179.249006 
L 209.50404 179.594268 
L 212.540909 179.93953 
L 215.577778 180.284792 
L 218.614646 180.630054 
L 221.651515 180.975316 
L 224.688384 181.320578 
L 227.725253 181.66584 
L 230.762121 182.011102 
L 233.79899 182.356364 
L 236.835859 182.701626 
L 239.872727 183.046888 
L 242.909596 183.39215 
L 245.946465 183.737412 
L 248.983333 184.082674 
L 252.020202 184.427936 
L 255.057071 184.773198 
L 258.093939 185.11846 
L 261.130808 185.463722 
L 264.167677 185.808984 
L 267.204545 186.154246 
L 270.241414 186.499508 
L 273.278283 186.84477 
L 276.315152 187.190032 
L 279.35202 187.535294 
L 282.388889 187.880556 
L 285.425758 188.225818 
L 288.462626 188.57108 
L 291.499495 188.916342 
L 294.536364 189.261604 
L 297.573232 189.606866 
L 300.610101 189.952128 
L 303.64697 190.29739 
L 306.683838 190.642652 
L 309.720707 190.987914 
L 312.757576 191.333177 
L 315.794444 191.678439 
L 318.831313 192.023701 
L 321.868182 192.368963 
L 324.905051 192.714225 
L 327.941919 193.059487 
L 330.978788 193.404749 
L 334.015657 193.750011 
L 337.052525 194.095273 
L 340.089394 194.440535 
L 343.126263 194.785797 
L 346.163131 195.131059 
L 349.2 195.476321 
" style="fill:none;stroke:#1f77b4;stroke-linecap:square;stroke-width:2.25;"/>
   </g>
   <g id="patch_3">
    <path d="M 48.55 332.2 
L 48.55 10.8 
" style="fill:none;stroke:#000000;stroke-linecap:square;stroke-linejoin:miter;stroke-width:0.8;"/>
   </g>
   <g id="patch_4">
    <path d="M 48.55 332.2 
L 349.2 332.2 
" style="fill:none;stroke:#000000;stroke-linecap:square;stroke-linejoin:miter;stroke-width:0.8;"/>
   </g>
  </g>
 </g>
 <defs>
  <clipPath id="pde2bfaba7c">
   <rect height="321.4" width="300.65" x="48.55" y="10.8"/>
  </clipPath>
 </defs>
</svg>
